<svg width="44" height="44" viewBox="0 0 44 44" fill="none" xmlns="http://www.w3.org/2000/svg">
<rect width="44" height="44" rx="22" fill="#80B3FE" style="fill:#80B3FE;fill:color(display-p3 0.5020 0.7020 0.9961);fill-opacity:1;"/>
<path d="M32.0001 22C32.0001 16.4771 27.5229 11.9999 22 11.9999C16.4772 11.9999 12 16.4771 12 22C12 27.5228 16.4772 32 22 32C27.5229 32 32.0001 27.5228 32.0001 22ZM16.5545 18.273C16.6024 18.1789 16.6789 18.1024 16.773 18.0545C16.88 18 17.02 18 17.3 18H17.7C17.98 18 18.12 18 18.227 18.0545C18.3211 18.1024 18.3976 18.1789 18.4455 18.273C18.5 18.38 18.5 18.52 18.5 18.8V19.2C18.5 19.48 18.5 19.62 18.4455 19.727C18.3976 19.8211 18.3211 19.8976 18.227 19.9455C18.12 20 17.98 20 17.7 20H17.3C17.02 20 16.88 20 16.773 19.9455C16.6789 19.8976 16.6024 19.8211 16.5545 19.727C16.5 19.62 16.5 19.48 16.5 19.2V18.8C16.5 18.52 16.5 18.38 16.5545 18.273ZM19.5 18.8C19.5 18.52 19.5 18.38 19.5545 18.273C19.6024 18.1789 19.6789 18.1024 19.773 18.0545C19.88 18 20.02 18 20.3 18H20.7C20.98 18 21.12 18 21.227 18.0545C21.3211 18.1024 21.3976 18.1789 21.4455 18.273C21.5 18.38 21.5 18.52 21.5 18.8V19.2C21.5 19.48 21.5 19.62 21.4455 19.727C21.3976 19.8211 21.3211 19.8976 21.227 19.9455C21.12 20 20.98 20 20.7 20H20.3C20.02 20 19.88 20 19.773 19.9455C19.6789 19.8976 19.6024 19.8211 19.5545 19.727C19.5 19.62 19.5 19.48 19.5 19.2V18.8ZM22.5545 18.273C22.6024 18.1789 22.6789 18.1024 22.773 18.0545C22.88 18 23.02 18 23.3 18H23.7C23.98 18 24.12 18 24.227 18.0545C24.3211 18.1024 24.3976 18.1789 24.4455 18.273C24.5 18.38 24.5 18.52 24.5 18.8V19.2C24.5 19.48 24.5 19.62 24.4455 19.727C24.3976 19.8211 24.3211 19.8976 24.227 19.9455C24.12 20 23.98 20 23.7 20H23.3C23.02 20 22.88 20 22.773 19.9455C22.6789 19.8976 22.6024 19.8211 22.5545 19.727C22.5 19.62 22.5 19.48 22.5 19.2V18.8C22.5 18.52 22.5 18.38 22.5545 18.273ZM25.5 18.8C25.5 18.52 25.5 18.38 25.5545 18.273C25.6024 18.1789 25.6789 18.1024 25.773 18.0545C25.88 18 26.02 18 26.3 18H26.7C26.98 18 27.12 18 27.227 18.0545C27.3211 18.1024 27.3976 18.1789 27.4455 18.273C27.5 18.38 27.5 18.52 27.5 18.8V19.2C27.5 19.48 27.5 19.62 27.4455 19.727C27.3976 19.8211 27.3211 19.8976 27.227 19.9455C27.12 20 26.98 20 26.7 20H26.3C26.02 20 25.88 20 25.773 19.9455C25.6789 19.8976 25.6024 19.8211 25.5545 19.727C25.5 19.62 25.5 19.48 25.5 19.2V18.8ZM16.5545 22.023C16.6024 21.9289 16.6789 21.8524 16.773 21.8045C16.88 21.75 17.02 21.75 17.3 21.75H17.7C17.98 21.75 18.12 21.75 18.227 21.8045C18.3211 21.8524 18.3976 21.9289 18.4455 22.023C18.5 22.13 18.5 22.27 18.5 22.55V22.95C18.5 23.23 18.5 23.37 18.4455 23.477C18.3976 23.5711 18.3211 23.6476 18.227 23.6955C18.12 23.75 17.98 23.75 17.7 23.75H17.3C17.02 23.75 16.88 23.75 16.773 23.6955C16.6789 23.6476 16.6024 23.5711 16.5545 23.477C16.5 23.37 16.5 23.23 16.5 22.95V22.55C16.5 22.27 16.5 22.13 16.5545 22.023ZM19.5 22.55C19.5 22.27 19.5 22.13 19.5545 22.023C19.6024 21.9289 19.6789 21.8524 19.773 21.8045C19.88 21.75 20.02 21.75 20.3 21.75H20.7C20.98 21.75 21.12 21.75 21.227 21.8045C21.3211 21.8524 21.3976 21.9289 21.4455 22.023C21.5 22.13 21.5 22.27 21.5 22.55V22.95C21.5 23.23 21.5 23.37 21.4455 23.477C21.3976 23.5711 21.3211 23.6476 21.227 23.6955C21.12 23.75 20.98 23.75 20.7 23.75H20.3C20.02 23.75 19.88 23.75 19.773 23.6955C19.6789 23.6476 19.6024 23.5711 19.5545 23.477C19.5 23.37 19.5 23.23 19.5 22.95V22.55ZM22.5545 22.023C22.6024 21.9289 22.6789 21.8524 22.773 21.8045C22.88 21.75 23.02 21.75 23.3 21.75H23.7C23.98 21.75 24.12 21.75 24.227 21.8045C24.3211 21.8524 24.3976 21.9289 24.4455 22.023C24.5 22.13 24.5 22.27 24.5 22.55V22.95C24.5 23.23 24.5 23.37 24.4455 23.477C24.3976 23.5711 24.3211 23.6476 24.227 23.6955C24.12 23.75 23.98 23.75 23.7 23.75H23.3C23.02 23.75 22.88 23.75 22.773 23.6955C22.6789 23.6476 22.6024 23.5711 22.5545 23.477C22.5 23.37 22.5 23.23 22.5 22.95V22.55C22.5 22.27 22.5 22.13 22.5545 22.023ZM25.5 22.55C25.5 22.27 25.5 22.13 25.5545 22.023C25.6024 21.9289 25.6789 21.8524 25.773 21.8045C25.88 21.75 26.02 21.75 26.3 21.75H26.7C26.98 21.75 27.12 21.75 27.227 21.8045C27.3211 21.8524 27.3976 21.9289 27.4455 22.023C27.5 22.13 27.5 22.27 27.5 22.55V22.95C27.5 23.23 27.5 23.37 27.4455 23.477C27.3976 23.5711 27.3211 23.6476 27.227 23.6955C27.12 23.75 26.98 23.75 26.7 23.75H26.3C26.02 23.75 25.88 23.75 25.773 23.6955C25.6789 23.6476 25.6024 23.5711 25.5545 23.477C25.5 23.37 25.5 23.23 25.5 22.95V22.55ZM18.0381 25.8087C18.0888 25.6861 18.1861 25.5888 18.3087 25.5381C18.4005 25.5 18.517 25.5 18.75 25.5H25.25C25.483 25.5 25.5995 25.5 25.6913 25.5381C25.8139 25.5888 25.9112 25.6861 25.9619 25.8087C26 25.9005 26 26.017 26 26.25C26 26.483 26 26.5995 25.9619 26.6913C25.9112 26.8139 25.8139 26.9112 25.6913 26.9619C25.5995 27 25.483 27 25.25 27H18.75C18.517 27 18.4005 27 18.3087 26.9619C18.1861 26.9112 18.0888 26.8139 18.0381 26.6913C18 26.5995 18 26.483 18 26.25C18 26.017 18 25.9005 18.0381 25.8087Z" fill="white" style="fill:white;fill:white;fill-opacity:1;"/>
</svg>
