<svg width="32" height="32" viewBox="0 0 32 32" fill="none" xmlns="http://www.w3.org/2000/svg">
<path fill-rule="evenodd" clip-rule="evenodd" d="M21.0675 16.0955C21.0675 18.7627 18.8978 20.9325 16.2305 20.9325C13.5633 20.9325 11.3936 18.7627 11.3936 16.0955V7.34284C11.3936 4.67559 13.5633 2.50586 16.2305 2.50586C18.8978 2.50586 21.0675 4.67559 21.0675 7.34284V16.0955ZM24.5224 16.0952V16.3255C24.5224 20.5862 21.2918 24.1029 17.1518 24.5631V27.3819H21.7584C22.0028 27.3819 22.2371 27.479 22.4099 27.6518C22.5827 27.8245 22.6798 28.0589 22.6798 28.3032C22.6798 28.5476 22.5827 28.7819 22.4099 28.9547C22.2371 29.1275 22.0028 29.2246 21.7584 29.2246H10.7025C10.4581 29.2246 10.2238 29.1275 10.051 28.9547C9.87821 28.7819 9.78114 28.5476 9.78114 28.3032C9.78114 28.0589 9.87821 27.8245 10.051 27.6518C10.2238 27.479 10.4581 27.3819 10.7025 27.3819H15.3091V24.5631C11.1691 24.1029 7.93848 20.5857 7.93848 16.3255V16.0952C7.93848 15.8508 8.03555 15.6165 8.20833 15.4437C8.38111 15.2709 8.61545 15.1738 8.85981 15.1738C9.10416 15.1738 9.3385 15.2709 9.51129 15.4437C9.68407 15.6165 9.78114 15.8508 9.78114 16.0952V16.3255C9.78114 19.8818 12.6741 22.7748 16.2305 22.7748C19.7868 22.7748 22.6798 19.8818 22.6798 16.3255V16.0952C22.6798 15.8508 22.7768 15.6165 22.9496 15.4437C23.1224 15.2709 23.3567 15.1738 23.6011 15.1738C23.8454 15.1738 24.0798 15.2709 24.2526 15.4437C24.4254 15.6165 24.5224 15.8508 24.5224 16.0952Z" fill="url(#paint0_linear_3427_1000)" fill-opacity="0.9"/>
<defs>
<linearGradient id="paint0_linear_3427_1000" x1="11.4443" y1="-10.9388" x2="30.13" y2="-8.7625" gradientUnits="userSpaceOnUse">
<stop stop-color="#5F9CFF"/>
<stop offset="1" stop-color="#266FE8"/>
</linearGradient>
</defs>
</svg>
