<svg width="108" height="36" viewBox="0 0 108 36" fill="none" xmlns="http://www.w3.org/2000/svg">
<g filter="url(#filter0_b_3568_1887)">
<rect width="108" height="36" rx="18" fill="#808080" fill-opacity="0.3" style="mix-blend-mode:luminosity"/>
<rect x="0.7" y="0.7" width="106.6" height="34.6" rx="17.3" stroke="url(#paint0_linear_3568_1887)" stroke-width="1.4"/>
<path d="M25.6663 17.9999C25.6663 14.8703 23.1293 12.3333 19.9997 12.3333C16.8701 12.3333 14.333 14.8703 14.333 17.9999C14.333 21.1295 16.8701 23.6666 19.9997 23.6666C23.1293 23.6666 25.6663 21.1295 25.6663 17.9999ZM26.6663 17.9999C26.6663 21.6818 23.6816 24.6666 19.9997 24.6666C16.3178 24.6666 13.333 21.6818 13.333 17.9999C13.333 14.318 16.3178 11.3333 19.9997 11.3333C23.6816 11.3333 26.6663 14.318 26.6663 17.9999ZM17.4057 15.6973C17.333 15.8399 17.333 16.0266 17.333 16.3999V19.5999C17.333 19.9733 17.333 20.16 17.4057 20.3026C17.4696 20.428 17.5716 20.53 17.697 20.5939C17.8396 20.6666 18.0263 20.6666 18.3997 20.6666H21.5997C21.973 20.6666 22.1597 20.6666 22.3023 20.5939C22.4278 20.53 22.5298 20.428 22.5937 20.3026C22.6663 20.16 22.6663 19.9733 22.6663 19.5999V16.3999C22.6663 16.0266 22.6663 15.8399 22.5937 15.6973C22.5298 15.5718 22.4278 15.4698 22.3023 15.4059C22.1597 15.3333 21.973 15.3333 21.5997 15.3333H18.3997C18.0263 15.3333 17.8396 15.3333 17.697 15.4059C17.5716 15.4698 17.4696 15.5718 17.4057 15.6973Z" fill="white"/>
<path d="M39.374 11.492L40.312 11.926C39.99 12.962 39.598 13.956 39.136 14.88V24.4H38.114V16.63C37.722 17.218 37.288 17.792 36.826 18.324L36.49 17.26C37.806 15.58 38.772 13.648 39.374 11.492ZM44.582 11.492C44.722 11.842 44.848 12.248 44.988 12.696H48.978V13.592H40.312V12.696H43.98C43.854 12.332 43.714 11.982 43.56 11.66L44.582 11.492ZM41.236 14.404H47.9V17.05H41.236V14.404ZM46.92 16.28V15.174H42.216V16.28H46.92ZM49.006 17.862V20.256H48.25V20.886H45.226V23.154C45.226 23.91 44.806 24.302 43.994 24.302H42.412L42.202 23.322C42.706 23.35 43.182 23.378 43.644 23.378C44.008 23.378 44.19 23.21 44.19 22.902V20.886H41.124V20.256H40.186V17.862H49.006ZM41.166 20.018H48.04V18.744H41.166V20.018ZM57.098 11.632H58.134V16.182H62.446V17.162H58.134V22.818H63.216V23.798H50.784V22.818H53.164V14.082H54.172V22.818H57.098V11.632ZM68.312 15.468H73.716V20.452H68.312V15.468ZM72.764 19.598V16.336H69.25V19.598H72.764ZM76.614 12.402V24.176H75.634V23.574H66.366V24.176H65.386V12.402H76.614ZM66.366 22.678H75.634V13.298H66.366V22.678ZM81.892 13.48C81.682 13.816 81.458 14.138 81.22 14.446H89.452V18.87H83.908C83.698 19.206 83.46 19.514 83.208 19.822H89.48V20.55C88.78 21.446 87.856 22.174 86.708 22.762C88.052 23.154 89.564 23.378 91.216 23.434L90.978 24.358C88.934 24.26 87.1 23.91 85.504 23.294C83.852 23.91 81.864 24.274 79.512 24.414L79.106 23.532C81.136 23.448 82.872 23.196 84.314 22.776C83.362 22.314 82.508 21.754 81.752 21.096C81.178 21.488 80.52 21.866 79.792 22.202L79.274 21.348C80.884 20.704 82.06 19.878 82.816 18.87H81.024V14.684C80.548 15.23 80.016 15.734 79.4 16.196L78.798 15.412C80.24 14.32 81.22 13.004 81.738 11.436L82.732 11.604C82.62 11.94 82.494 12.276 82.354 12.598H90.544V13.48H81.892ZM85.518 22.37C86.638 21.908 87.548 21.334 88.234 20.648H82.48C83.376 21.348 84.384 21.922 85.518 22.37ZM88.472 18.058V17.022H82.018V18.058H88.472ZM82.018 16.266H88.472V15.244H82.018V16.266Z" fill="white"/>
</g>
<defs>
<filter id="filter0_b_3568_1887" x="-100" y="-100" width="308" height="236" filterUnits="userSpaceOnUse" color-interpolation-filters="sRGB">
<feFlood flood-opacity="0" result="BackgroundImageFix"/>
<feGaussianBlur in="BackgroundImageFix" stdDeviation="50"/>
<feComposite in2="SourceAlpha" operator="in" result="effect1_backgroundBlur_3568_1887"/>
<feBlend mode="normal" in="SourceGraphic" in2="effect1_backgroundBlur_3568_1887" result="shape"/>
</filter>
<linearGradient id="paint0_linear_3568_1887" x1="7.56593" y1="-7.9819e-06" x2="14.2224" y2="45.9725" gradientUnits="userSpaceOnUse">
<stop stop-color="white" stop-opacity="0.4"/>
<stop offset="0.405687" stop-color="white" stop-opacity="0.01"/>
<stop offset="0.574372" stop-color="white" stop-opacity="0.01"/>
<stop offset="1" stop-color="white" stop-opacity="0.1"/>
</linearGradient>
</defs>
</svg>
