<svg width="29" height="30" viewBox="0 0 29 30" fill="none" xmlns="http://www.w3.org/2000/svg">
<path d="M2.56066 29.0607C1.97487 29.6464 1.02513 29.6464 0.43934 29.0607C-0.146447 28.4749 -0.146447 27.5251 0.43934 26.9393L12.3787 15L0.43934 3.06066C-0.146447 2.47488 -0.146447 1.52513 0.43934 0.939341C1.02513 0.353555 1.97487 0.353555 2.56066 0.939341L14.5 12.8787L26.4393 0.93934C27.0251 0.353553 27.9749 0.353553 28.5607 0.93934C29.1464 1.52513 29.1464 2.47487 28.5607 3.06066L16.6213 15L28.5607 26.9393C29.1464 27.5251 29.1464 28.4749 28.5607 29.0607C27.9749 29.6465 27.0251 29.6465 26.4393 29.0607L14.5 17.1213L2.56066 29.0607Z" fill="white"/>
</svg>
