<svg width="108" height="36" viewBox="0 0 108 36" fill="none" xmlns="http://www.w3.org/2000/svg">
    <g filter="url(#filter0_b_4543_43714)">
        <rect width="108" height="36" rx="18" fill="#808080" fill-opacity="0.3" style="mix-blend-mode:luminosity" />
        <rect x="0.7" y="0.7" width="106.6" height="34.6" rx="17.3" stroke="url(#paint0_linear_4543_43714)"
            stroke-width="1.4" />
        <path fill-rule="evenodd" clip-rule="evenodd"
            d="M15.3333 12.1665C15.3333 12.0112 15.3333 11.9335 15.308 11.8723C15.2741 11.7906 15.2092 11.7257 15.1276 11.6919C15.0663 11.6665 14.9886 11.6665 14.8333 11.6665C14.678 11.6665 14.6004 11.6665 14.5391 11.6919C14.4574 11.7257 14.3925 11.7906 14.3587 11.8723C14.3333 11.9335 14.3333 12.0112 14.3333 12.1665V15.9998H15H15.3333H17.8333C17.9886 15.9998 18.0663 15.9998 18.1276 15.9745C18.2092 15.9406 18.2741 15.8757 18.308 15.7941C18.3333 15.7328 18.3333 15.6552 18.3333 15.4998C18.3333 15.3445 18.3333 15.2669 18.308 15.2056C18.2741 15.1239 18.2092 15.059 18.1276 15.0252C18.0663 14.9998 17.9886 14.9998 17.8333 14.9998H15.9996C16.9118 13.7854 18.3642 12.9998 20 12.9998C22.7614 12.9998 25 15.2384 25 17.9998C25 20.7613 22.7614 22.9998 20 22.9998C17.7003 22.9998 15.7632 21.4473 15.1797 19.3332H14.1487C14.755 22.0052 17.1446 23.9998 20 23.9998C23.3137 23.9998 26 21.3135 26 17.9998C26 14.6861 23.3137 11.9998 20 11.9998C18.1152 11.9998 16.4333 12.8689 15.3333 14.2283V12.1665Z"
            fill="white" />
        <path
            d="M38.03 15.594H42.314V14.908H36.966V13.788H42.314V13.018C40.97 13.088 39.556 13.144 38.072 13.2L37.848 12.136C41.488 12.024 44.708 11.828 47.522 11.548L47.928 12.626C46.598 12.738 45.17 12.85 43.644 12.948V13.788H49.02V14.908H43.644V15.594H47.942V20.41H43.644V21.152H48.53V22.202H43.644V23H49.23V24.134H36.77V23H42.314V22.202H37.47V21.152H42.314V20.41H38.03V15.594ZM46.654 19.36V18.492H43.644V19.36H46.654ZM42.314 19.36V18.492H39.304V19.36H42.314ZM39.304 17.484H42.314V16.644H39.304V17.484ZM43.644 16.644V17.484H46.654V16.644H43.644ZM62.502 11.632L63.146 12.808C61.942 13.228 60.612 13.48 59.156 13.578V15.846H63.482V17.12H62.138V24.456H60.836V17.12H59.156V18.534C59.086 20.998 58.54 22.958 57.518 24.428L56.58 23.42C57.378 22.244 57.812 20.62 57.868 18.534V12.486C59.59 12.458 61.13 12.164 62.502 11.632ZM50.812 12.626H53.304C53.136 12.262 52.94 11.912 52.73 11.59L54.102 11.366C54.27 11.744 54.452 12.164 54.62 12.626H57.21V13.858H50.812V12.626ZM50.672 15.804H52.156C51.974 15.314 51.764 14.852 51.526 14.432L52.688 13.998C52.912 14.502 53.136 15.104 53.332 15.804H54.662C54.886 15.216 55.082 14.614 55.25 13.984L56.44 14.404C56.272 14.922 56.076 15.384 55.866 15.804H57.294V17.022H54.704V18.282H57.056V19.486H54.704V23.238C54.704 24.078 54.242 24.498 53.318 24.498H52.59L52.296 23.266C52.506 23.322 52.702 23.35 52.884 23.35C53.22 23.35 53.388 23.21 53.388 22.93V19.486H50.896V18.282H53.388V17.022H50.672V15.804ZM51.736 20.102L52.94 20.354C52.604 21.768 52.142 23 51.526 24.05L50.434 23.35C51.05 22.342 51.484 21.25 51.736 20.102ZM56.118 20.004C56.482 20.9 56.776 21.712 56.986 22.44L55.866 22.86C55.642 21.992 55.362 21.138 55.026 20.298L56.118 20.004ZM68.214 15.37H73.814V20.55H68.214V15.37ZM72.554 19.444V16.49H69.446V19.444H72.554ZM76.74 12.304V24.176H75.452V23.686H66.548V24.176H65.26V12.304H76.74ZM66.548 22.51H75.452V13.48H66.548V22.51ZM81.99 13.606C81.822 13.858 81.654 14.11 81.486 14.348H89.55V18.968H84.02C83.838 19.234 83.656 19.486 83.46 19.724H89.606V20.662C88.976 21.446 88.164 22.118 87.17 22.664C88.402 22.958 89.76 23.126 91.244 23.182L90.936 24.4C88.934 24.302 87.142 23.966 85.56 23.392C83.908 23.98 81.92 24.344 79.596 24.484L79.064 23.336C80.954 23.266 82.592 23.056 83.964 22.706C83.166 22.286 82.424 21.81 81.752 21.264C81.192 21.642 80.576 21.992 79.918 22.3L79.232 21.166C80.716 20.578 81.808 19.85 82.536 18.968H80.898V15.048C80.478 15.496 80.016 15.902 79.526 16.28L78.728 15.23C80.128 14.18 81.08 12.892 81.584 11.38L82.886 11.618C82.788 11.912 82.69 12.192 82.578 12.472H90.586V13.606H81.99ZM85.574 22.188C86.526 21.81 87.31 21.348 87.94 20.788H82.844C83.656 21.348 84.566 21.824 85.574 22.188ZM88.262 17.932V17.134H82.2V17.932H88.262ZM82.2 16.154H88.262V15.37H82.2V16.154Z"
            fill="white" />
    </g>
    <defs>
        <filter id="filter0_b_4543_43714" x="-100" y="-100" width="308" height="236" filterUnits="userSpaceOnUse"
            color-interpolation-filters="sRGB">
            <feFlood flood-opacity="0" result="BackgroundImageFix" />
            <feGaussianBlur in="BackgroundImageFix" stdDeviation="50" />
            <feComposite in2="SourceAlpha" operator="in" result="effect1_backgroundBlur_4543_43714" />
            <feBlend mode="normal" in="SourceGraphic" in2="effect1_backgroundBlur_4543_43714" result="shape" />
        </filter>
        <linearGradient id="paint0_linear_4543_43714" x1="7.56593" y1="-7.9819e-06" x2="14.2224" y2="45.9725"
            gradientUnits="userSpaceOnUse">
            <stop stop-color="white" stop-opacity="0.4" />
            <stop offset="0.405687" stop-color="white" stop-opacity="0.01" />
            <stop offset="0.574372" stop-color="white" stop-opacity="0.01" />
            <stop offset="1" stop-color="white" stop-opacity="0.1" />
        </linearGradient>
    </defs>
</svg>